<svg xmlns="http://www.w3.org/2000/svg" xmlns:xlink="http://www.w3.org/1999/xlink" viewBox="0 0 64 64"><defs><style>.cls-1{fill:url(#Adsız_degrade_40);}.cls-2{fill:#fff;}</style><linearGradient id="Adsız_degrade_40" x1="48" y1="59.72" x2="16" y2="4.28" gradientUnits="userSpaceOnUse"><stop offset="0" stop-color="#298def"/><stop offset="0.09" stop-color="#347fec"/><stop offset="0.33" stop-color="#4c61e7"/><stop offset="0.57" stop-color="#5d4be2"/><stop offset="0.79" stop-color="#673ee0"/><stop offset="1" stop-color="#6b3adf"/></linearGradient></defs><title>gotop</title><g id="katman_2" data-name="katman 2"><g id="katman_1-2" data-name="katman 1"><circle class="cls-1" cx="32" cy="32" r="32"/><path class="cls-2" d="M48.35,27,33.53,9.43a2,2,0,0,0-3.06,0L15.65,27a2,2,0,0,0,1.52,3.3h9.64a1.23,1.23,0,0,0,0,.19V53.27a2,2,0,0,0,2,2h5.57a2,2,0,0,0,2-2V30.44a1.23,1.23,0,0,0,0-.19H46.83A2,2,0,0,0,48.35,27Z"/></g></g></svg>